<mxfile host="app.diagrams.net" agent="Mozilla/5.0 (Windows NT 10.0; Win64; x64) AppleWebKit/537.36 (KHTML, like Gecko) Chrome/140.0.0.0 Safari/537.36" version="28.2.5">
  <diagram name="Página-1" id="-gIOC3gT8M3l9_sPII1S">
    <mxGraphModel grid="1" page="1" gridSize="10" guides="1" tooltips="1" connect="1" arrows="1" fold="1" pageScale="1" pageWidth="827" pageHeight="1169" math="0" shadow="0">
      <root>
        <mxCell id="0" />
        <mxCell id="1" parent="0" />
        <mxCell id="Z_yvYeS_3jdJEKGfzKYI-2" value="Login" style="swimlane;html=1;childLayout=stackLayout;resizeParent=1;resizeParentMax=0;horizontal=0;startSize=20;horizontalStack=0;whiteSpace=wrap;" vertex="1" parent="1">
          <mxGeometry x="50" y="90" width="1170" height="620" as="geometry" />
        </mxCell>
        <mxCell id="Z_yvYeS_3jdJEKGfzKYI-11" style="edgeStyle=orthogonalEdgeStyle;rounded=0;orthogonalLoop=1;jettySize=auto;html=1;entryX=0;entryY=0.5;entryDx=0;entryDy=0;entryPerimeter=0;exitX=0.5;exitY=0;exitDx=0;exitDy=0;exitPerimeter=0;" edge="1" parent="Z_yvYeS_3jdJEKGfzKYI-2" source="Z_yvYeS_3jdJEKGfzKYI-108" target="Z_yvYeS_3jdJEKGfzKYI-10">
          <mxGeometry relative="1" as="geometry">
            <mxPoint x="185" y="380" as="sourcePoint" />
          </mxGeometry>
        </mxCell>
        <mxCell id="Z_yvYeS_3jdJEKGfzKYI-21" style="edgeStyle=orthogonalEdgeStyle;rounded=0;orthogonalLoop=1;jettySize=auto;html=1;entryX=0.5;entryY=0;entryDx=0;entryDy=0;entryPerimeter=0;" edge="1" parent="Z_yvYeS_3jdJEKGfzKYI-2" source="Z_yvYeS_3jdJEKGfzKYI-16" target="Z_yvYeS_3jdJEKGfzKYI-39">
          <mxGeometry relative="1" as="geometry">
            <mxPoint x="410" y="610" as="targetPoint" />
          </mxGeometry>
        </mxCell>
        <mxCell id="Z_yvYeS_3jdJEKGfzKYI-23" style="edgeStyle=orthogonalEdgeStyle;rounded=0;orthogonalLoop=1;jettySize=auto;html=1;exitX=1;exitY=0.5;exitDx=0;exitDy=0;exitPerimeter=0;" edge="1" parent="Z_yvYeS_3jdJEKGfzKYI-2" source="Z_yvYeS_3jdJEKGfzKYI-39" target="Z_yvYeS_3jdJEKGfzKYI-37">
          <mxGeometry relative="1" as="geometry">
            <mxPoint x="470" y="650" as="sourcePoint" />
            <mxPoint x="579.9999999999998" y="500" as="targetPoint" />
          </mxGeometry>
        </mxCell>
        <mxCell id="Z_yvYeS_3jdJEKGfzKYI-26" style="edgeStyle=orthogonalEdgeStyle;rounded=0;orthogonalLoop=1;jettySize=auto;html=1;entryX=0;entryY=0.5;entryDx=0;entryDy=0;entryPerimeter=0;exitX=1;exitY=0.5;exitDx=0;exitDy=0;exitPerimeter=0;" edge="1" parent="Z_yvYeS_3jdJEKGfzKYI-2" source="Z_yvYeS_3jdJEKGfzKYI-37" target="Z_yvYeS_3jdJEKGfzKYI-24">
          <mxGeometry relative="1" as="geometry">
            <mxPoint x="660" y="461" as="sourcePoint" />
          </mxGeometry>
        </mxCell>
        <mxCell id="Z_yvYeS_3jdJEKGfzKYI-36" style="edgeStyle=orthogonalEdgeStyle;rounded=0;orthogonalLoop=1;jettySize=auto;html=1;entryX=1;entryY=0.25;entryDx=0;entryDy=0;entryPerimeter=0;exitX=0.5;exitY=0;exitDx=0;exitDy=0;exitPerimeter=0;" edge="1" parent="Z_yvYeS_3jdJEKGfzKYI-2" source="Z_yvYeS_3jdJEKGfzKYI-40" target="Z_yvYeS_3jdJEKGfzKYI-37">
          <mxGeometry relative="1" as="geometry">
            <mxPoint x="940.0000000000002" y="552.5" as="sourcePoint" />
            <mxPoint x="639.9999999999998" y="440" as="targetPoint" />
          </mxGeometry>
        </mxCell>
        <mxCell id="Z_yvYeS_3jdJEKGfzKYI-42" value="" style="edgeStyle=orthogonalEdgeStyle;rounded=0;orthogonalLoop=1;jettySize=auto;html=1;entryX=0;entryY=0.5;entryDx=0;entryDy=0;entryPerimeter=0;exitX=0.5;exitY=1;exitDx=0;exitDy=0;exitPerimeter=0;" edge="1" parent="Z_yvYeS_3jdJEKGfzKYI-2" source="Z_yvYeS_3jdJEKGfzKYI-38" target="Z_yvYeS_3jdJEKGfzKYI-43">
          <mxGeometry relative="1" as="geometry">
            <mxPoint x="960.090909090909" y="570.090909090909" as="targetPoint" />
            <Array as="points">
              <mxPoint x="580" y="170" />
              <mxPoint x="900" y="170" />
              <mxPoint x="900" y="470" />
            </Array>
          </mxGeometry>
        </mxCell>
        <mxCell id="Z_yvYeS_3jdJEKGfzKYI-53" style="edgeStyle=orthogonalEdgeStyle;rounded=0;orthogonalLoop=1;jettySize=auto;html=1;entryX=1;entryY=0.5;entryDx=0;entryDy=0;entryPerimeter=0;exitX=0.5;exitY=0;exitDx=0;exitDy=0;exitPerimeter=0;" edge="1" parent="Z_yvYeS_3jdJEKGfzKYI-2" source="Z_yvYeS_3jdJEKGfzKYI-51" target="Z_yvYeS_3jdJEKGfzKYI-38">
          <mxGeometry relative="1" as="geometry">
            <mxPoint x="1000" y="250" as="sourcePoint" />
            <mxPoint x="930" y="120" as="targetPoint" />
            <Array as="points">
              <mxPoint x="1020" y="110" />
            </Array>
          </mxGeometry>
        </mxCell>
        <mxCell id="Z_yvYeS_3jdJEKGfzKYI-4" value="Usuario" style="swimlane;html=1;startSize=20;horizontal=0;" vertex="1" parent="Z_yvYeS_3jdJEKGfzKYI-2">
          <mxGeometry x="20" width="1150" height="300" as="geometry" />
        </mxCell>
        <mxCell id="Z_yvYeS_3jdJEKGfzKYI-14" style="edgeStyle=orthogonalEdgeStyle;rounded=0;orthogonalLoop=1;jettySize=auto;html=1;" edge="1" parent="Z_yvYeS_3jdJEKGfzKYI-4" source="Z_yvYeS_3jdJEKGfzKYI-10" target="Z_yvYeS_3jdJEKGfzKYI-38">
          <mxGeometry relative="1" as="geometry">
            <mxPoint x="330" y="105" as="targetPoint" />
          </mxGeometry>
        </mxCell>
        <mxCell id="Z_yvYeS_3jdJEKGfzKYI-15" value="Sí" style="edgeLabel;html=1;align=center;verticalAlign=middle;resizable=0;points=[];" connectable="0" vertex="1" parent="Z_yvYeS_3jdJEKGfzKYI-14">
          <mxGeometry x="-0.8096" y="-1" relative="1" as="geometry">
            <mxPoint y="-11" as="offset" />
          </mxGeometry>
        </mxCell>
        <mxCell id="Z_yvYeS_3jdJEKGfzKYI-10" value="" style="points=[[0.25,0.25,0],[0.5,0,0],[0.75,0.25,0],[1,0.5,0],[0.75,0.75,0],[0.5,1,0],[0.25,0.75,0],[0,0.5,0]];shape=mxgraph.bpmn.gateway2;html=1;verticalLabelPosition=bottom;labelBackgroundColor=#ffffff;verticalAlign=top;align=center;perimeter=rhombusPerimeter;outlineConnect=0;outline=none;symbol=none;fillColor=#d5e8d4;strokeColor=#82b366;" vertex="1" parent="Z_yvYeS_3jdJEKGfzKYI-4">
          <mxGeometry x="135" y="80" width="50" height="50" as="geometry" />
        </mxCell>
        <mxCell id="Z_yvYeS_3jdJEKGfzKYI-12" value="¿El usuario está&lt;div&gt;registrado?&lt;/div&gt;" style="text;html=1;align=center;verticalAlign=middle;resizable=0;points=[];autosize=1;fillColor=default;" vertex="1" parent="Z_yvYeS_3jdJEKGfzKYI-4">
          <mxGeometry x="105" y="30" width="110" height="40" as="geometry" />
        </mxCell>
        <mxCell id="Z_yvYeS_3jdJEKGfzKYI-16" value="Hacer click en link de registro" style="points=[[0.25,0,0],[0.5,0,0],[0.75,0,0],[1,0.25,0],[1,0.5,0],[1,0.75,0],[0.75,1,0],[0.5,1,0],[0.25,1,0],[0,0.75,0],[0,0.5,0],[0,0.25,0]];shape=mxgraph.bpmn.task2;whiteSpace=wrap;rectStyle=rounded;size=10;html=1;container=1;expand=0;collapsible=0;taskMarker=abstract;fillColor=#dae8fc;strokeColor=#6c8ebf;" vertex="1" parent="Z_yvYeS_3jdJEKGfzKYI-4">
          <mxGeometry x="330" y="190" width="120" height="80" as="geometry" />
        </mxCell>
        <mxCell id="Z_yvYeS_3jdJEKGfzKYI-17" style="edgeStyle=orthogonalEdgeStyle;rounded=0;orthogonalLoop=1;jettySize=auto;html=1;entryX=0;entryY=0.5;entryDx=0;entryDy=0;entryPerimeter=0;exitX=0.5;exitY=1;exitDx=0;exitDy=0;exitPerimeter=0;" edge="1" parent="Z_yvYeS_3jdJEKGfzKYI-4" source="Z_yvYeS_3jdJEKGfzKYI-10" target="Z_yvYeS_3jdJEKGfzKYI-16">
          <mxGeometry relative="1" as="geometry" />
        </mxCell>
        <mxCell id="Z_yvYeS_3jdJEKGfzKYI-18" value="No" style="edgeLabel;html=1;align=center;verticalAlign=middle;resizable=0;points=[];" connectable="0" vertex="1" parent="Z_yvYeS_3jdJEKGfzKYI-17">
          <mxGeometry x="-0.8758" relative="1" as="geometry">
            <mxPoint x="10" y="-7" as="offset" />
          </mxGeometry>
        </mxCell>
        <mxCell id="Z_yvYeS_3jdJEKGfzKYI-37" value="Diligenciar formulario de registros" style="points=[[0.25,0,0],[0.5,0,0],[0.75,0,0],[1,0.25,0],[1,0.5,0],[1,0.75,0],[0.75,1,0],[0.5,1,0],[0.25,1,0],[0,0.75,0],[0,0.5,0],[0,0.25,0]];shape=mxgraph.bpmn.task2;whiteSpace=wrap;rectStyle=rounded;size=10;html=1;container=1;expand=0;collapsible=0;taskMarker=user;fillColor=#dae8fc;strokeColor=#6c8ebf;" vertex="1" parent="Z_yvYeS_3jdJEKGfzKYI-4">
          <mxGeometry x="500" y="185" width="120" height="80" as="geometry" />
        </mxCell>
        <mxCell id="Z_yvYeS_3jdJEKGfzKYI-38" value="ingresar datos de Login" style="points=[[0.25,0,0],[0.5,0,0],[0.75,0,0],[1,0.25,0],[1,0.5,0],[1,0.75,0],[0.75,1,0],[0.5,1,0],[0.25,1,0],[0,0.75,0],[0,0.5,0],[0,0.25,0]];shape=mxgraph.bpmn.task2;whiteSpace=wrap;rectStyle=rounded;size=10;html=1;container=1;expand=0;collapsible=0;taskMarker=user;fillColor=#dae8fc;strokeColor=#6c8ebf;" vertex="1" parent="Z_yvYeS_3jdJEKGfzKYI-4">
          <mxGeometry x="500" y="65" width="120" height="80" as="geometry" />
        </mxCell>
        <mxCell id="Z_yvYeS_3jdJEKGfzKYI-5" value="Sistema" style="swimlane;html=1;startSize=20;horizontal=0;" vertex="1" parent="Z_yvYeS_3jdJEKGfzKYI-2">
          <mxGeometry x="20" y="300" width="1150" height="320" as="geometry" />
        </mxCell>
        <mxCell id="Z_yvYeS_3jdJEKGfzKYI-8" style="edgeStyle=orthogonalEdgeStyle;rounded=0;orthogonalLoop=1;jettySize=auto;html=1;" edge="1" parent="Z_yvYeS_3jdJEKGfzKYI-5" source="Z_yvYeS_3jdJEKGfzKYI-6" target="Z_yvYeS_3jdJEKGfzKYI-108">
          <mxGeometry relative="1" as="geometry">
            <mxPoint x="100" y="120" as="targetPoint" />
          </mxGeometry>
        </mxCell>
        <mxCell id="Z_yvYeS_3jdJEKGfzKYI-6" value="" style="points=[[0.145,0.145,0],[0.5,0,0],[0.855,0.145,0],[1,0.5,0],[0.855,0.855,0],[0.5,1,0],[0.145,0.855,0],[0,0.5,0]];shape=mxgraph.bpmn.event;html=1;verticalLabelPosition=bottom;labelBackgroundColor=#ffffff;verticalAlign=top;align=center;perimeter=ellipsePerimeter;outlineConnect=0;aspect=fixed;outline=standard;symbol=general;fillColor=#ffe6cc;strokeColor=#d79b00;" vertex="1" parent="Z_yvYeS_3jdJEKGfzKYI-5">
          <mxGeometry x="40" y="102.5" width="35" height="35" as="geometry" />
        </mxCell>
        <mxCell id="Z_yvYeS_3jdJEKGfzKYI-27" style="edgeStyle=orthogonalEdgeStyle;rounded=0;orthogonalLoop=1;jettySize=auto;html=1;entryX=1;entryY=0.5;entryDx=0;entryDy=0;entryPerimeter=0;exitX=1;exitY=0.5;exitDx=0;exitDy=0;exitPerimeter=0;" edge="1" parent="Z_yvYeS_3jdJEKGfzKYI-5" source="Z_yvYeS_3jdJEKGfzKYI-24" target="Z_yvYeS_3jdJEKGfzKYI-54">
          <mxGeometry relative="1" as="geometry">
            <mxPoint x="765.0000000000002" y="165" as="targetPoint" />
            <Array as="points">
              <mxPoint x="780" y="165" />
              <mxPoint x="780" y="260" />
            </Array>
          </mxGeometry>
        </mxCell>
        <mxCell id="Z_yvYeS_3jdJEKGfzKYI-28" value="Sí" style="edgeLabel;html=1;align=center;verticalAlign=middle;resizable=0;points=[];" connectable="0" vertex="1" parent="Z_yvYeS_3jdJEKGfzKYI-27">
          <mxGeometry x="-0.0567" y="-1" relative="1" as="geometry">
            <mxPoint x="-12" y="-104" as="offset" />
          </mxGeometry>
        </mxCell>
        <mxCell id="Z_yvYeS_3jdJEKGfzKYI-24" value="" style="points=[[0.25,0.25,0],[0.5,0,0],[0.75,0.25,0],[1,0.5,0],[0.75,0.75,0],[0.5,1,0],[0.25,0.75,0],[0,0.5,0]];shape=mxgraph.bpmn.gateway2;html=1;verticalLabelPosition=bottom;labelBackgroundColor=#ffffff;verticalAlign=top;align=center;perimeter=rhombusPerimeter;outlineConnect=0;outline=none;symbol=none;fillColor=#d5e8d4;strokeColor=#82b366;" vertex="1" parent="Z_yvYeS_3jdJEKGfzKYI-5">
          <mxGeometry x="665" y="140" width="50" height="50" as="geometry" />
        </mxCell>
        <mxCell id="Z_yvYeS_3jdJEKGfzKYI-25" value="¿Datos ingresados&lt;div&gt;correctamente?&lt;/div&gt;" style="text;html=1;align=center;verticalAlign=middle;resizable=0;points=[];autosize=1;fillColor=default;" vertex="1" parent="Z_yvYeS_3jdJEKGfzKYI-5">
          <mxGeometry x="630" y="195" width="120" height="40" as="geometry" />
        </mxCell>
        <mxCell id="Z_yvYeS_3jdJEKGfzKYI-33" style="edgeStyle=orthogonalEdgeStyle;rounded=0;orthogonalLoop=1;jettySize=auto;html=1;exitX=0.5;exitY=0;exitDx=0;exitDy=0;exitPerimeter=0;entryX=0;entryY=0.5;entryDx=0;entryDy=0;entryPerimeter=0;" edge="1" parent="Z_yvYeS_3jdJEKGfzKYI-5" source="Z_yvYeS_3jdJEKGfzKYI-24" target="Z_yvYeS_3jdJEKGfzKYI-40">
          <mxGeometry relative="1" as="geometry">
            <mxPoint x="860.0000000000002" y="62.5" as="targetPoint" />
          </mxGeometry>
        </mxCell>
        <mxCell id="Z_yvYeS_3jdJEKGfzKYI-34" value="No" style="edgeLabel;html=1;align=center;verticalAlign=middle;resizable=0;points=[];" connectable="0" vertex="1" parent="Z_yvYeS_3jdJEKGfzKYI-33">
          <mxGeometry x="-0.7596" y="-2" relative="1" as="geometry">
            <mxPoint x="9" y="5" as="offset" />
          </mxGeometry>
        </mxCell>
        <mxCell id="Z_yvYeS_3jdJEKGfzKYI-39" value="Desplegar formulario de registro" style="points=[[0.25,0,0],[0.5,0,0],[0.75,0,0],[1,0.25,0],[1,0.5,0],[1,0.75,0],[0.75,1,0],[0.5,1,0],[0.25,1,0],[0,0.75,0],[0,0.5,0],[0,0.25,0]];shape=mxgraph.bpmn.task2;whiteSpace=wrap;rectStyle=rounded;size=10;html=1;container=1;expand=0;collapsible=0;taskMarker=service;fillColor=#dae8fc;strokeColor=#6c8ebf;" vertex="1" parent="Z_yvYeS_3jdJEKGfzKYI-5">
          <mxGeometry x="330" y="85" width="120" height="80" as="geometry" />
        </mxCell>
        <mxCell id="Z_yvYeS_3jdJEKGfzKYI-40" value="Notificar sobre error de ingreso de datos" style="points=[[0.25,0,0],[0.5,0,0],[0.75,0,0],[1,0.25,0],[1,0.5,0],[1,0.75,0],[0.75,1,0],[0.5,1,0],[0.25,1,0],[0,0.75,0],[0,0.5,0],[0,0.25,0]];shape=mxgraph.bpmn.task2;whiteSpace=wrap;rectStyle=rounded;size=10;html=1;container=1;expand=0;collapsible=0;taskMarker=abstract;fillColor=#f8cecc;strokeColor=#b85450;" vertex="1" parent="Z_yvYeS_3jdJEKGfzKYI-5">
          <mxGeometry x="730" y="40" width="120" height="80" as="geometry" />
        </mxCell>
        <mxCell id="Z_yvYeS_3jdJEKGfzKYI-47" style="edgeStyle=orthogonalEdgeStyle;rounded=0;orthogonalLoop=1;jettySize=auto;html=1;" edge="1" parent="Z_yvYeS_3jdJEKGfzKYI-5" source="Z_yvYeS_3jdJEKGfzKYI-43" target="Z_yvYeS_3jdJEKGfzKYI-46">
          <mxGeometry relative="1" as="geometry" />
        </mxCell>
        <mxCell id="Z_yvYeS_3jdJEKGfzKYI-48" value="Sí" style="edgeLabel;html=1;align=center;verticalAlign=middle;resizable=0;points=[];" connectable="0" vertex="1" parent="Z_yvYeS_3jdJEKGfzKYI-47">
          <mxGeometry x="-0.26" y="-2" relative="1" as="geometry">
            <mxPoint x="-9" y="-12" as="offset" />
          </mxGeometry>
        </mxCell>
        <mxCell id="Z_yvYeS_3jdJEKGfzKYI-43" value="" style="points=[[0.25,0.25,0],[0.5,0,0],[0.75,0.25,0],[1,0.5,0],[0.75,0.75,0],[0.5,1,0],[0.25,0.75,0],[0,0.5,0]];shape=mxgraph.bpmn.gateway2;html=1;verticalLabelPosition=bottom;labelBackgroundColor=#ffffff;verticalAlign=top;align=center;perimeter=rhombusPerimeter;outlineConnect=0;outline=none;symbol=none;fillColor=#d5e8d4;strokeColor=#82b366;" vertex="1" parent="Z_yvYeS_3jdJEKGfzKYI-5">
          <mxGeometry x="900" y="145" width="50" height="50" as="geometry" />
        </mxCell>
        <mxCell id="Z_yvYeS_3jdJEKGfzKYI-44" value="¿Credenciales&lt;div&gt;válidas?&lt;/div&gt;" style="text;html=1;align=center;verticalAlign=middle;resizable=0;points=[];autosize=1;fillColor=default;" vertex="1" parent="Z_yvYeS_3jdJEKGfzKYI-5">
          <mxGeometry x="875" y="195" width="100" height="40" as="geometry" />
        </mxCell>
        <mxCell id="Z_yvYeS_3jdJEKGfzKYI-46" value="Login exitoso" style="points=[[0.145,0.145,0],[0.5,0,0],[0.855,0.145,0],[1,0.5,0],[0.855,0.855,0],[0.5,1,0],[0.145,0.855,0],[0,0.5,0]];shape=mxgraph.bpmn.event;html=1;verticalLabelPosition=bottom;labelBackgroundColor=#ffffff;verticalAlign=top;align=center;perimeter=ellipsePerimeter;outlineConnect=0;aspect=fixed;outline=end;symbol=terminate2;fillColor=#fff2cc;strokeColor=#d6b656;" vertex="1" parent="Z_yvYeS_3jdJEKGfzKYI-5">
          <mxGeometry x="1020" y="152.5" width="35" height="35" as="geometry" />
        </mxCell>
        <mxCell id="Z_yvYeS_3jdJEKGfzKYI-51" value="Notificar sobre login incorrecto" style="points=[[0.25,0,0],[0.5,0,0],[0.75,0,0],[1,0.25,0],[1,0.5,0],[1,0.75,0],[0.75,1,0],[0.5,1,0],[0.25,1,0],[0,0.75,0],[0,0.5,0],[0,0.25,0]];shape=mxgraph.bpmn.task2;whiteSpace=wrap;rectStyle=rounded;size=10;html=1;container=1;expand=0;collapsible=0;taskMarker=abstract;isLoopSub=1;fillColor=#f8cecc;strokeColor=#b85450;" vertex="1" parent="Z_yvYeS_3jdJEKGfzKYI-5">
          <mxGeometry x="940" y="20" width="120" height="80" as="geometry" />
        </mxCell>
        <mxCell id="Z_yvYeS_3jdJEKGfzKYI-49" style="edgeStyle=orthogonalEdgeStyle;rounded=0;orthogonalLoop=1;jettySize=auto;html=1;exitX=0.5;exitY=0;exitDx=0;exitDy=0;exitPerimeter=0;entryX=0.5;entryY=1;entryDx=0;entryDy=0;entryPerimeter=0;" edge="1" parent="Z_yvYeS_3jdJEKGfzKYI-5" source="Z_yvYeS_3jdJEKGfzKYI-43" target="Z_yvYeS_3jdJEKGfzKYI-51">
          <mxGeometry relative="1" as="geometry">
            <mxPoint x="1000" y="90" as="targetPoint" />
          </mxGeometry>
        </mxCell>
        <mxCell id="Z_yvYeS_3jdJEKGfzKYI-52" value="No" style="edgeLabel;html=1;align=center;verticalAlign=middle;resizable=0;points=[];" connectable="0" vertex="1" parent="Z_yvYeS_3jdJEKGfzKYI-49">
          <mxGeometry x="-0.5174" y="-1" relative="1" as="geometry">
            <mxPoint x="3" y="14" as="offset" />
          </mxGeometry>
        </mxCell>
        <mxCell id="Z_yvYeS_3jdJEKGfzKYI-54" value="Informa sobre registro exitoso" style="points=[[0.25,0,0],[0.5,0,0],[0.75,0,0],[1,0.25,0],[1,0.5,0],[1,0.75,0],[0.75,1,0],[0.5,1,0],[0.25,1,0],[0,0.75,0],[0,0.5,0],[0,0.25,0]];shape=mxgraph.bpmn.task2;whiteSpace=wrap;rectStyle=rounded;size=10;html=1;container=1;expand=0;collapsible=0;taskMarker=abstract;fillColor=#dae8fc;strokeColor=#6c8ebf;" vertex="1" parent="Z_yvYeS_3jdJEKGfzKYI-5">
          <mxGeometry x="490" y="220" width="120" height="80" as="geometry" />
        </mxCell>
        <mxCell id="Z_yvYeS_3jdJEKGfzKYI-108" value="Mostrar pantalla de Inicio" style="points=[[0.25,0,0],[0.5,0,0],[0.75,0,0],[1,0.25,0],[1,0.5,0],[1,0.75,0],[0.75,1,0],[0.5,1,0],[0.25,1,0],[0,0.75,0],[0,0.5,0],[0,0.25,0]];shape=mxgraph.bpmn.task2;whiteSpace=wrap;rectStyle=rounded;size=10;html=1;container=1;expand=0;collapsible=0;taskMarker=service;fillColor=#dae8fc;strokeColor=#6c8ebf;" vertex="1" parent="Z_yvYeS_3jdJEKGfzKYI-5">
          <mxGeometry x="100" y="80" width="120" height="80" as="geometry" />
        </mxCell>
        <mxCell id="Z_yvYeS_3jdJEKGfzKYI-109" value="Registrar usuario en base de datos" style="points=[[0.25,0,0],[0.5,0,0],[0.75,0,0],[1,0.25,0],[1,0.5,0],[1,0.75,0],[0.75,1,0],[0.5,1,0],[0.25,1,0],[0,0.75,0],[0,0.5,0],[0,0.25,0]];shape=mxgraph.bpmn.task2;whiteSpace=wrap;rectStyle=rounded;size=10;html=1;container=1;expand=0;collapsible=0;taskMarker=service;fillColor=#dae8fc;strokeColor=#6c8ebf;" vertex="1" parent="Z_yvYeS_3jdJEKGfzKYI-5">
          <mxGeometry x="250" y="220" width="120" height="80" as="geometry" />
        </mxCell>
        <mxCell id="Z_yvYeS_3jdJEKGfzKYI-110" style="edgeStyle=orthogonalEdgeStyle;rounded=0;orthogonalLoop=1;jettySize=auto;html=1;entryX=0.5;entryY=1;entryDx=0;entryDy=0;entryPerimeter=0;" edge="1" parent="Z_yvYeS_3jdJEKGfzKYI-5" source="Z_yvYeS_3jdJEKGfzKYI-109" target="Z_yvYeS_3jdJEKGfzKYI-108">
          <mxGeometry relative="1" as="geometry" />
        </mxCell>
        <mxCell id="Z_yvYeS_3jdJEKGfzKYI-111" style="edgeStyle=orthogonalEdgeStyle;rounded=0;orthogonalLoop=1;jettySize=auto;html=1;entryX=1;entryY=0.5;entryDx=0;entryDy=0;entryPerimeter=0;" edge="1" parent="Z_yvYeS_3jdJEKGfzKYI-5" source="Z_yvYeS_3jdJEKGfzKYI-54" target="Z_yvYeS_3jdJEKGfzKYI-109">
          <mxGeometry relative="1" as="geometry" />
        </mxCell>
        <mxCell id="Z_yvYeS_3jdJEKGfzKYI-67" value="Notificar sobre login incorrecto" style="swimlane;html=1;childLayout=stackLayout;resizeParent=1;resizeParentMax=0;horizontal=0;startSize=20;horizontalStack=0;whiteSpace=wrap;" vertex="1" parent="1">
          <mxGeometry x="50" y="820" width="1170" height="460" as="geometry" />
        </mxCell>
        <mxCell id="Z_yvYeS_3jdJEKGfzKYI-85" value="Sistema" style="swimlane;html=1;startSize=20;horizontal=0;" vertex="1" parent="Z_yvYeS_3jdJEKGfzKYI-67">
          <mxGeometry x="20" width="1150" height="460" as="geometry" />
        </mxCell>
        <mxCell id="Z_yvYeS_3jdJEKGfzKYI-87" value="" style="points=[[0.145,0.145,0],[0.5,0,0],[0.855,0.145,0],[1,0.5,0],[0.855,0.855,0],[0.5,1,0],[0.145,0.855,0],[0,0.5,0]];shape=mxgraph.bpmn.event;html=1;verticalLabelPosition=bottom;labelBackgroundColor=#ffffff;verticalAlign=top;align=center;perimeter=ellipsePerimeter;outlineConnect=0;aspect=fixed;outline=standard;symbol=general;fillColor=#fff2cc;strokeColor=#d6b656;" vertex="1" parent="Z_yvYeS_3jdJEKGfzKYI-85">
          <mxGeometry x="40" y="291.25" width="35" height="35" as="geometry" />
        </mxCell>
        <mxCell id="Z_yvYeS_3jdJEKGfzKYI-115" style="edgeStyle=orthogonalEdgeStyle;rounded=0;orthogonalLoop=1;jettySize=auto;html=1;entryX=0;entryY=0.5;entryDx=0;entryDy=0;entryPerimeter=0;" edge="1" parent="Z_yvYeS_3jdJEKGfzKYI-85" source="Z_yvYeS_3jdJEKGfzKYI-112" target="Z_yvYeS_3jdJEKGfzKYI-117">
          <mxGeometry relative="1" as="geometry">
            <mxPoint x="279.9999999999998" y="308.75" as="targetPoint" />
          </mxGeometry>
        </mxCell>
        <mxCell id="Z_yvYeS_3jdJEKGfzKYI-116" value="No" style="edgeLabel;html=1;align=center;verticalAlign=middle;resizable=0;points=[];" connectable="0" vertex="1" parent="Z_yvYeS_3jdJEKGfzKYI-115">
          <mxGeometry x="0.2508" y="-3" relative="1" as="geometry">
            <mxPoint x="-52" y="-13" as="offset" />
          </mxGeometry>
        </mxCell>
        <mxCell id="Z_yvYeS_3jdJEKGfzKYI-112" value="" style="points=[[0.25,0.25,0],[0.5,0,0],[0.75,0.25,0],[1,0.5,0],[0.75,0.75,0],[0.5,1,0],[0.25,0.75,0],[0,0.5,0]];shape=mxgraph.bpmn.gateway2;html=1;verticalLabelPosition=bottom;labelBackgroundColor=#ffffff;verticalAlign=top;align=center;perimeter=rhombusPerimeter;outlineConnect=0;outline=none;symbol=none;gwType=exclusive;fillColor=#d5e8d4;strokeColor=#82b366;" vertex="1" parent="Z_yvYeS_3jdJEKGfzKYI-85">
          <mxGeometry x="130" y="283.75" width="50" height="50" as="geometry" />
        </mxCell>
        <mxCell id="Z_yvYeS_3jdJEKGfzKYI-113" style="edgeStyle=orthogonalEdgeStyle;rounded=0;orthogonalLoop=1;jettySize=auto;html=1;entryX=0;entryY=0.5;entryDx=0;entryDy=0;entryPerimeter=0;" edge="1" parent="Z_yvYeS_3jdJEKGfzKYI-85" source="Z_yvYeS_3jdJEKGfzKYI-87" target="Z_yvYeS_3jdJEKGfzKYI-112">
          <mxGeometry relative="1" as="geometry" />
        </mxCell>
        <mxCell id="Z_yvYeS_3jdJEKGfzKYI-114" value="¿Existe correo en&lt;div&gt;&lt;span style=&quot;background-color: transparent; color: light-dark(rgb(0, 0, 0), rgb(255, 255, 255));&quot;&gt;base de datos?&lt;/span&gt;&lt;/div&gt;" style="text;html=1;align=center;verticalAlign=middle;resizable=0;points=[];autosize=1;fillColor=default;" vertex="1" parent="Z_yvYeS_3jdJEKGfzKYI-85">
          <mxGeometry x="95" y="333.75" width="120" height="40" as="geometry" />
        </mxCell>
        <mxCell id="Z_yvYeS_3jdJEKGfzKYI-155" value="" style="edgeStyle=orthogonalEdgeStyle;rounded=0;orthogonalLoop=1;jettySize=auto;html=1;" edge="1" parent="Z_yvYeS_3jdJEKGfzKYI-85" source="Z_yvYeS_3jdJEKGfzKYI-117" target="Z_yvYeS_3jdJEKGfzKYI-154">
          <mxGeometry relative="1" as="geometry" />
        </mxCell>
        <mxCell id="Z_yvYeS_3jdJEKGfzKYI-117" value="Notificar sobre usuario no encontrado" style="points=[[0.25,0,0],[0.5,0,0],[0.75,0,0],[1,0.25,0],[1,0.5,0],[1,0.75,0],[0.75,1,0],[0.5,1,0],[0.25,1,0],[0,0.75,0],[0,0.5,0],[0,0.25,0]];shape=mxgraph.bpmn.task2;whiteSpace=wrap;rectStyle=rounded;size=10;html=1;container=1;expand=0;collapsible=0;taskMarker=abstract;fillColor=#f8cecc;strokeColor=#b85450;" vertex="1" parent="Z_yvYeS_3jdJEKGfzKYI-85">
          <mxGeometry x="284" y="268.75" width="120" height="80" as="geometry" />
        </mxCell>
        <mxCell id="Z_yvYeS_3jdJEKGfzKYI-123" style="edgeStyle=orthogonalEdgeStyle;rounded=0;orthogonalLoop=1;jettySize=auto;html=1;entryX=0;entryY=0.5;entryDx=0;entryDy=0;entryPerimeter=0;" edge="1" parent="Z_yvYeS_3jdJEKGfzKYI-85" source="Z_yvYeS_3jdJEKGfzKYI-119" target="Z_yvYeS_3jdJEKGfzKYI-124">
          <mxGeometry relative="1" as="geometry">
            <mxPoint x="390" y="186.25" as="targetPoint" />
          </mxGeometry>
        </mxCell>
        <mxCell id="Z_yvYeS_3jdJEKGfzKYI-125" value="No" style="edgeLabel;html=1;align=center;verticalAlign=middle;resizable=0;points=[];" connectable="0" vertex="1" parent="Z_yvYeS_3jdJEKGfzKYI-123">
          <mxGeometry x="-0.5501" y="-5" relative="1" as="geometry">
            <mxPoint x="-6" y="5" as="offset" />
          </mxGeometry>
        </mxCell>
        <mxCell id="Z_yvYeS_3jdJEKGfzKYI-126" style="edgeStyle=orthogonalEdgeStyle;rounded=0;orthogonalLoop=1;jettySize=auto;html=1;" edge="1" parent="Z_yvYeS_3jdJEKGfzKYI-85" source="Z_yvYeS_3jdJEKGfzKYI-119" target="Z_yvYeS_3jdJEKGfzKYI-128">
          <mxGeometry relative="1" as="geometry">
            <mxPoint x="265" y="80" as="targetPoint" />
          </mxGeometry>
        </mxCell>
        <mxCell id="Z_yvYeS_3jdJEKGfzKYI-127" value="Sí" style="edgeLabel;html=1;align=center;verticalAlign=middle;resizable=0;points=[];" connectable="0" vertex="1" parent="Z_yvYeS_3jdJEKGfzKYI-126">
          <mxGeometry x="-0.5107" y="-2" relative="1" as="geometry">
            <mxPoint x="6" y="9" as="offset" />
          </mxGeometry>
        </mxCell>
        <mxCell id="Z_yvYeS_3jdJEKGfzKYI-119" value="" style="points=[[0.25,0.25,0],[0.5,0,0],[0.75,0.25,0],[1,0.5,0],[0.75,0.75,0],[0.5,1,0],[0.25,0.75,0],[0,0.5,0]];shape=mxgraph.bpmn.gateway2;html=1;verticalLabelPosition=bottom;labelBackgroundColor=#ffffff;verticalAlign=top;align=center;perimeter=rhombusPerimeter;outlineConnect=0;outline=none;symbol=none;gwType=exclusive;fillColor=#d5e8d4;strokeColor=#82b366;" vertex="1" parent="Z_yvYeS_3jdJEKGfzKYI-85">
          <mxGeometry x="240" y="161.25" width="50" height="50" as="geometry" />
        </mxCell>
        <mxCell id="Z_yvYeS_3jdJEKGfzKYI-120" style="edgeStyle=orthogonalEdgeStyle;rounded=0;orthogonalLoop=1;jettySize=auto;html=1;entryX=0;entryY=0.5;entryDx=0;entryDy=0;entryPerimeter=0;exitX=0.5;exitY=0;exitDx=0;exitDy=0;exitPerimeter=0;" edge="1" parent="Z_yvYeS_3jdJEKGfzKYI-85" source="Z_yvYeS_3jdJEKGfzKYI-112" target="Z_yvYeS_3jdJEKGfzKYI-119">
          <mxGeometry relative="1" as="geometry" />
        </mxCell>
        <mxCell id="Z_yvYeS_3jdJEKGfzKYI-121" value="Sí" style="edgeLabel;html=1;align=center;verticalAlign=middle;resizable=0;points=[];" connectable="0" vertex="1" parent="Z_yvYeS_3jdJEKGfzKYI-120">
          <mxGeometry x="-0.7143" y="1" relative="1" as="geometry">
            <mxPoint x="8" y="12" as="offset" />
          </mxGeometry>
        </mxCell>
        <mxCell id="Z_yvYeS_3jdJEKGfzKYI-122" value="¿La contraseña&lt;div&gt;coincide?&lt;/div&gt;" style="text;html=1;align=center;verticalAlign=middle;resizable=0;points=[];autosize=1;fillColor=default;" vertex="1" parent="Z_yvYeS_3jdJEKGfzKYI-85">
          <mxGeometry x="215" y="211.25" width="110" height="40" as="geometry" />
        </mxCell>
        <mxCell id="Z_yvYeS_3jdJEKGfzKYI-124" value="Notificar sobre contraseña incorrecta" style="points=[[0.25,0,0],[0.5,0,0],[0.75,0,0],[1,0.25,0],[1,0.5,0],[1,0.75,0],[0.75,1,0],[0.5,1,0],[0.25,1,0],[0,0.75,0],[0,0.5,0],[0,0.25,0]];shape=mxgraph.bpmn.task2;whiteSpace=wrap;rectStyle=rounded;size=10;html=1;container=1;expand=0;collapsible=0;taskMarker=abstract;fillColor=#f8cecc;strokeColor=#b85450;" vertex="1" parent="Z_yvYeS_3jdJEKGfzKYI-85">
          <mxGeometry x="360" y="146.25" width="120" height="80" as="geometry" />
        </mxCell>
        <mxCell id="Z_yvYeS_3jdJEKGfzKYI-128" value="" style="points=[[0.145,0.145,0],[0.5,0,0],[0.855,0.145,0],[1,0.5,0],[0.855,0.855,0],[0.5,1,0],[0.145,0.855,0],[0,0.5,0]];shape=mxgraph.bpmn.event;html=1;verticalLabelPosition=bottom;labelBackgroundColor=#ffffff;verticalAlign=top;align=center;perimeter=ellipsePerimeter;outlineConnect=0;aspect=fixed;outline=end;symbol=terminate2;fillColor=#ffe6cc;strokeColor=#d79b00;" vertex="1" parent="Z_yvYeS_3jdJEKGfzKYI-85">
          <mxGeometry x="250" y="30" width="30" height="30" as="geometry" />
        </mxCell>
        <mxCell id="Z_yvYeS_3jdJEKGfzKYI-129" value="Credenciales&lt;div&gt;Válidas&lt;/div&gt;" style="text;html=1;align=center;verticalAlign=middle;resizable=0;points=[];autosize=1;fillColor=default;" vertex="1" parent="Z_yvYeS_3jdJEKGfzKYI-85">
          <mxGeometry x="223" y="85" width="90" height="40" as="geometry" />
        </mxCell>
        <mxCell id="Z_yvYeS_3jdJEKGfzKYI-152" value="Contraseña&lt;div&gt;Incorrecta&lt;/div&gt;" style="points=[[0.145,0.145,0],[0.5,0,0],[0.855,0.145,0],[1,0.5,0],[0.855,0.855,0],[0.5,1,0],[0.145,0.855,0],[0,0.5,0]];shape=mxgraph.bpmn.event;html=1;verticalLabelPosition=bottom;labelBackgroundColor=#ffffff;verticalAlign=top;align=center;perimeter=ellipsePerimeter;outlineConnect=0;aspect=fixed;outline=end;symbol=terminate2;fillColor=#ffe6cc;strokeColor=#d79b00;" vertex="1" parent="Z_yvYeS_3jdJEKGfzKYI-85">
          <mxGeometry x="540" y="171.25" width="30" height="30" as="geometry" />
        </mxCell>
        <mxCell id="Z_yvYeS_3jdJEKGfzKYI-153" style="edgeStyle=orthogonalEdgeStyle;rounded=0;orthogonalLoop=1;jettySize=auto;html=1;entryX=0;entryY=0.5;entryDx=0;entryDy=0;entryPerimeter=0;" edge="1" parent="Z_yvYeS_3jdJEKGfzKYI-85" source="Z_yvYeS_3jdJEKGfzKYI-124" target="Z_yvYeS_3jdJEKGfzKYI-152">
          <mxGeometry relative="1" as="geometry" />
        </mxCell>
        <mxCell id="Z_yvYeS_3jdJEKGfzKYI-154" value="Usuario No&lt;div&gt;registrado&lt;/div&gt;" style="points=[[0.145,0.145,0],[0.5,0,0],[0.855,0.145,0],[1,0.5,0],[0.855,0.855,0],[0.5,1,0],[0.145,0.855,0],[0,0.5,0]];shape=mxgraph.bpmn.event;html=1;verticalLabelPosition=bottom;labelBackgroundColor=#ffffff;verticalAlign=top;align=center;perimeter=ellipsePerimeter;outlineConnect=0;aspect=fixed;outline=end;symbol=terminate2;fillColor=#ffe6cc;strokeColor=#d79b00;" vertex="1" parent="Z_yvYeS_3jdJEKGfzKYI-85">
          <mxGeometry x="450" y="293.75" width="30" height="30" as="geometry" />
        </mxCell>
        <mxCell id="e5MXqv3pdKOOL6rmGM5y-67" value="Proceso de creación de eventos" style="swimlane;html=1;childLayout=stackLayout;resizeParent=1;resizeParentMax=0;horizontal=0;startSize=20;horizontalStack=0;whiteSpace=wrap;" vertex="1" parent="1">
          <mxGeometry x="50" y="1380" width="1170" height="620" as="geometry" />
        </mxCell>
        <mxCell id="e5MXqv3pdKOOL6rmGM5y-72" style="edgeStyle=orthogonalEdgeStyle;rounded=0;orthogonalLoop=1;jettySize=auto;html=1;entryX=0.5;entryY=0;entryDx=0;entryDy=0;entryPerimeter=0;exitX=0.5;exitY=1;exitDx=0;exitDy=0;exitPerimeter=0;" edge="1" parent="e5MXqv3pdKOOL6rmGM5y-67" source="e5MXqv3pdKOOL6rmGM5y-84" target="e5MXqv3pdKOOL6rmGM5y-109">
          <mxGeometry relative="1" as="geometry">
            <mxPoint x="810" y="340" as="sourcePoint" />
            <mxPoint x="640" y="205" as="targetPoint" />
          </mxGeometry>
        </mxCell>
        <mxCell id="e5MXqv3pdKOOL6rmGM5y-75" value="Usuario" style="swimlane;html=1;startSize=20;horizontal=0;" vertex="1" parent="e5MXqv3pdKOOL6rmGM5y-67">
          <mxGeometry x="20" width="1150" height="300" as="geometry" />
        </mxCell>
        <mxCell id="e5MXqv3pdKOOL6rmGM5y-80" value="Acceder a creación de nuevo evento" style="points=[[0.25,0,0],[0.5,0,0],[0.75,0,0],[1,0.25,0],[1,0.5,0],[1,0.75,0],[0.75,1,0],[0.5,1,0],[0.25,1,0],[0,0.75,0],[0,0.5,0],[0,0.25,0]];shape=mxgraph.bpmn.task2;whiteSpace=wrap;rectStyle=rounded;size=10;html=1;container=1;expand=0;collapsible=0;taskMarker=abstract;fillColor=#dae8fc;strokeColor=#6c8ebf;" vertex="1" parent="e5MXqv3pdKOOL6rmGM5y-75">
          <mxGeometry x="180" y="65" width="110" height="80" as="geometry" />
        </mxCell>
        <mxCell id="e5MXqv3pdKOOL6rmGM5y-84" value="Diligenciar formulario" style="points=[[0.25,0,0],[0.5,0,0],[0.75,0,0],[1,0.25,0],[1,0.5,0],[1,0.75,0],[0.75,1,0],[0.5,1,0],[0.25,1,0],[0,0.75,0],[0,0.5,0],[0,0.25,0]];shape=mxgraph.bpmn.task2;whiteSpace=wrap;rectStyle=rounded;size=10;html=1;container=1;expand=0;collapsible=0;taskMarker=user;fillColor=#dae8fc;strokeColor=#6c8ebf;" vertex="1" parent="e5MXqv3pdKOOL6rmGM5y-75">
          <mxGeometry x="500" y="65" width="120" height="80" as="geometry" />
        </mxCell>
        <mxCell id="e5MXqv3pdKOOL6rmGM5y-87" value="" style="points=[[0.145,0.145,0],[0.5,0,0],[0.855,0.145,0],[1,0.5,0],[0.855,0.855,0],[0.5,1,0],[0.145,0.855,0],[0,0.5,0]];shape=mxgraph.bpmn.event;html=1;verticalLabelPosition=bottom;labelBackgroundColor=#ffffff;verticalAlign=top;align=center;perimeter=ellipsePerimeter;outlineConnect=0;aspect=fixed;outline=standard;symbol=general;fillColor=#ffe6cc;strokeColor=#d79b00;" vertex="1" parent="e5MXqv3pdKOOL6rmGM5y-75">
          <mxGeometry x="30" y="85" width="40" height="40" as="geometry" />
        </mxCell>
        <mxCell id="e5MXqv3pdKOOL6rmGM5y-68" style="edgeStyle=orthogonalEdgeStyle;rounded=0;orthogonalLoop=1;jettySize=auto;html=1;entryX=0;entryY=0.5;entryDx=0;entryDy=0;entryPerimeter=0;exitX=1;exitY=0.5;exitDx=0;exitDy=0;exitPerimeter=0;" edge="1" parent="e5MXqv3pdKOOL6rmGM5y-75" source="e5MXqv3pdKOOL6rmGM5y-87" target="e5MXqv3pdKOOL6rmGM5y-80">
          <mxGeometry relative="1" as="geometry">
            <mxPoint x="165" y="380" as="sourcePoint" />
            <mxPoint x="135" y="105" as="targetPoint" />
          </mxGeometry>
        </mxCell>
        <mxCell id="e5MXqv3pdKOOL6rmGM5y-122" style="edgeStyle=orthogonalEdgeStyle;rounded=0;orthogonalLoop=1;jettySize=auto;html=1;exitX=1;exitY=0.5;exitDx=0;exitDy=0;exitPerimeter=0;entryX=0;entryY=0.5;entryDx=0;entryDy=0;entryPerimeter=0;" edge="1" parent="e5MXqv3pdKOOL6rmGM5y-75" source="e5MXqv3pdKOOL6rmGM5y-80" target="e5MXqv3pdKOOL6rmGM5y-84">
          <mxGeometry relative="1" as="geometry">
            <mxPoint x="390" y="130" as="sourcePoint" />
            <mxPoint x="532" y="130" as="targetPoint" />
          </mxGeometry>
        </mxCell>
        <mxCell id="e5MXqv3pdKOOL6rmGM5y-124" style="edgeStyle=orthogonalEdgeStyle;rounded=0;orthogonalLoop=1;jettySize=auto;html=1;exitX=0;exitY=0.5;exitDx=0;exitDy=0;exitPerimeter=0;entryX=0.25;entryY=1;entryDx=0;entryDy=0;entryPerimeter=0;" edge="1" parent="e5MXqv3pdKOOL6rmGM5y-67" source="e5MXqv3pdKOOL6rmGM5y-116" target="e5MXqv3pdKOOL6rmGM5y-84">
          <mxGeometry relative="1" as="geometry">
            <mxPoint x="520" y="220" as="sourcePoint" />
            <mxPoint x="662" y="220" as="targetPoint" />
            <Array as="points">
              <mxPoint x="100" y="530" />
              <mxPoint x="100" y="210" />
              <mxPoint x="550" y="210" />
            </Array>
          </mxGeometry>
        </mxCell>
        <mxCell id="ONjn1HUcM6MyJpdXJw0q-13" style="edgeStyle=orthogonalEdgeStyle;rounded=0;orthogonalLoop=1;jettySize=auto;html=1;entryX=0.75;entryY=1;entryDx=0;entryDy=0;entryPerimeter=0;exitX=0.5;exitY=1;exitDx=0;exitDy=0;exitPerimeter=0;" edge="1" parent="e5MXqv3pdKOOL6rmGM5y-67" source="ONjn1HUcM6MyJpdXJw0q-11" target="e5MXqv3pdKOOL6rmGM5y-84">
          <mxGeometry relative="1" as="geometry">
            <Array as="points">
              <mxPoint x="610" y="600" />
              <mxPoint x="90" y="600" />
              <mxPoint x="90" y="200" />
              <mxPoint x="610" y="200" />
            </Array>
          </mxGeometry>
        </mxCell>
        <mxCell id="e5MXqv3pdKOOL6rmGM5y-85" value="Sistema" style="swimlane;html=1;startSize=20;horizontal=0;" vertex="1" parent="e5MXqv3pdKOOL6rmGM5y-67">
          <mxGeometry x="20" y="300" width="1150" height="320" as="geometry" />
        </mxCell>
        <mxCell id="e5MXqv3pdKOOL6rmGM5y-100" value="Creación&amp;nbsp;&lt;div&gt;de evento exitosa&lt;/div&gt;" style="points=[[0.145,0.145,0],[0.5,0,0],[0.855,0.145,0],[1,0.5,0],[0.855,0.855,0],[0.5,1,0],[0.145,0.855,0],[0,0.5,0]];shape=mxgraph.bpmn.event;html=1;verticalLabelPosition=bottom;labelBackgroundColor=#ffffff;verticalAlign=top;align=center;perimeter=ellipsePerimeter;outlineConnect=0;aspect=fixed;outline=end;symbol=terminate2;fillColor=#fff2cc;strokeColor=#d6b656;" vertex="1" parent="e5MXqv3pdKOOL6rmGM5y-85">
          <mxGeometry x="1020" y="87.5" width="35" height="35" as="geometry" />
        </mxCell>
        <mxCell id="e5MXqv3pdKOOL6rmGM5y-102" style="edgeStyle=orthogonalEdgeStyle;rounded=0;orthogonalLoop=1;jettySize=auto;html=1;exitX=1;exitY=0.5;exitDx=0;exitDy=0;exitPerimeter=0;" edge="1" parent="e5MXqv3pdKOOL6rmGM5y-85" source="e5MXqv3pdKOOL6rmGM5y-119">
          <mxGeometry relative="1" as="geometry">
            <mxPoint x="1020" y="105" as="targetPoint" />
            <mxPoint x="925" y="145" as="sourcePoint" />
          </mxGeometry>
        </mxCell>
        <mxCell id="e5MXqv3pdKOOL6rmGM5y-109" value="Validar datos ingresados del evento" style="points=[[0.25,0,0],[0.5,0,0],[0.75,0,0],[1,0.25,0],[1,0.5,0],[1,0.75,0],[0.75,1,0],[0.5,1,0],[0.25,1,0],[0,0.75,0],[0,0.5,0],[0,0.25,0]];shape=mxgraph.bpmn.task2;whiteSpace=wrap;rectStyle=rounded;size=10;html=1;container=1;expand=0;collapsible=0;taskMarker=abstract;fillColor=#dae8fc;strokeColor=#6c8ebf;" vertex="1" parent="e5MXqv3pdKOOL6rmGM5y-85">
          <mxGeometry x="130" y="74" width="120" height="80" as="geometry" />
        </mxCell>
        <mxCell id="e5MXqv3pdKOOL6rmGM5y-111" value="" style="points=[[0.25,0.25,0],[0.5,0,0],[0.75,0.25,0],[1,0.5,0],[0.75,0.75,0],[0.5,1,0],[0.25,0.75,0],[0,0.5,0]];shape=mxgraph.bpmn.gateway2;html=1;verticalLabelPosition=bottom;labelBackgroundColor=#ffffff;verticalAlign=top;align=center;perimeter=rhombusPerimeter;outlineConnect=0;outline=none;symbol=none;fillColor=#d5e8d4;strokeColor=#82b366;" vertex="1" parent="e5MXqv3pdKOOL6rmGM5y-85">
          <mxGeometry x="400" y="90" width="50" height="50" as="geometry" />
        </mxCell>
        <mxCell id="e5MXqv3pdKOOL6rmGM5y-70" style="edgeStyle=orthogonalEdgeStyle;rounded=0;orthogonalLoop=1;jettySize=auto;html=1;exitX=1;exitY=0.5;exitDx=0;exitDy=0;exitPerimeter=0;" edge="1" parent="e5MXqv3pdKOOL6rmGM5y-85" source="e5MXqv3pdKOOL6rmGM5y-111" target="ONjn1HUcM6MyJpdXJw0q-5">
          <mxGeometry relative="1" as="geometry">
            <mxPoint x="450" y="125" as="sourcePoint" />
            <mxPoint x="592.04" y="114.67999999999984" as="targetPoint" />
          </mxGeometry>
        </mxCell>
        <mxCell id="ONjn1HUcM6MyJpdXJw0q-2" value="Sí" style="edgeLabel;html=1;align=center;verticalAlign=middle;resizable=0;points=[];" connectable="0" vertex="1" parent="e5MXqv3pdKOOL6rmGM5y-70">
          <mxGeometry x="0.0244" relative="1" as="geometry">
            <mxPoint x="-58" y="-10" as="offset" />
          </mxGeometry>
        </mxCell>
        <mxCell id="e5MXqv3pdKOOL6rmGM5y-115" value="¿Los datos ingresados&lt;div&gt;son válidos?&lt;/div&gt;" style="text;html=1;align=center;verticalAlign=middle;resizable=0;points=[];autosize=1;fillColor=default;" vertex="1" parent="e5MXqv3pdKOOL6rmGM5y-85">
          <mxGeometry x="355" y="45" width="140" height="40" as="geometry" />
        </mxCell>
        <mxCell id="e5MXqv3pdKOOL6rmGM5y-116" value="Mostrar error de validación" style="points=[[0.25,0,0],[0.5,0,0],[0.75,0,0],[1,0.25,0],[1,0.5,0],[1,0.75,0],[0.75,1,0],[0.5,1,0],[0.25,1,0],[0,0.75,0],[0,0.5,0],[0,0.25,0]];shape=mxgraph.bpmn.task2;whiteSpace=wrap;rectStyle=rounded;size=10;html=1;container=1;expand=0;collapsible=0;taskMarker=abstract;isLoopSub=1;fillColor=#f8cecc;strokeColor=#b85450;" vertex="1" parent="e5MXqv3pdKOOL6rmGM5y-85">
          <mxGeometry x="365" y="190" width="120" height="80" as="geometry" />
        </mxCell>
        <mxCell id="e5MXqv3pdKOOL6rmGM5y-117" style="edgeStyle=orthogonalEdgeStyle;rounded=0;orthogonalLoop=1;jettySize=auto;html=1;exitX=0.5;exitY=1;exitDx=0;exitDy=0;exitPerimeter=0;entryX=0.5;entryY=0;entryDx=0;entryDy=0;entryPerimeter=0;" edge="1" parent="e5MXqv3pdKOOL6rmGM5y-85" source="e5MXqv3pdKOOL6rmGM5y-111" target="e5MXqv3pdKOOL6rmGM5y-116">
          <mxGeometry relative="1" as="geometry">
            <mxPoint x="430" y="-50" as="sourcePoint" />
            <mxPoint x="572" y="-50" as="targetPoint" />
          </mxGeometry>
        </mxCell>
        <mxCell id="ONjn1HUcM6MyJpdXJw0q-3" value="No" style="edgeLabel;html=1;align=center;verticalAlign=middle;resizable=0;points=[];" connectable="0" vertex="1" parent="e5MXqv3pdKOOL6rmGM5y-117">
          <mxGeometry x="-0.16" y="1" relative="1" as="geometry">
            <mxPoint x="14" y="-24" as="offset" />
          </mxGeometry>
        </mxCell>
        <mxCell id="e5MXqv3pdKOOL6rmGM5y-119" value="Enviar confirmación de creación de evento" style="points=[[0.25,0,0],[0.5,0,0],[0.75,0,0],[1,0.25,0],[1,0.5,0],[1,0.75,0],[0.75,1,0],[0.5,1,0],[0.25,1,0],[0,0.75,0],[0,0.5,0],[0,0.25,0]];shape=mxgraph.bpmn.task2;whiteSpace=wrap;rectStyle=rounded;size=10;html=1;container=1;expand=0;collapsible=0;taskMarker=abstract;fillColor=#dae8fc;strokeColor=#6c8ebf;" vertex="1" parent="e5MXqv3pdKOOL6rmGM5y-85">
          <mxGeometry x="830" y="65" width="120" height="80" as="geometry" />
        </mxCell>
        <mxCell id="e5MXqv3pdKOOL6rmGM5y-125" style="edgeStyle=orthogonalEdgeStyle;rounded=0;orthogonalLoop=1;jettySize=auto;html=1;exitX=1;exitY=0.5;exitDx=0;exitDy=0;exitPerimeter=0;entryX=0.017;entryY=0.621;entryDx=0;entryDy=0;entryPerimeter=0;" edge="1" parent="e5MXqv3pdKOOL6rmGM5y-85" source="e5MXqv3pdKOOL6rmGM5y-109">
          <mxGeometry relative="1" as="geometry">
            <mxPoint x="258" y="114.54999999999995" as="sourcePoint" />
            <mxPoint x="400" y="114.54999999999995" as="targetPoint" />
          </mxGeometry>
        </mxCell>
        <mxCell id="ONjn1HUcM6MyJpdXJw0q-12" style="edgeStyle=orthogonalEdgeStyle;rounded=0;orthogonalLoop=1;jettySize=auto;html=1;" edge="1" parent="e5MXqv3pdKOOL6rmGM5y-85" source="ONjn1HUcM6MyJpdXJw0q-4" target="ONjn1HUcM6MyJpdXJw0q-11">
          <mxGeometry relative="1" as="geometry" />
        </mxCell>
        <mxCell id="ONjn1HUcM6MyJpdXJw0q-14" value="No" style="edgeLabel;html=1;align=center;verticalAlign=middle;resizable=0;points=[];" connectable="0" vertex="1" parent="ONjn1HUcM6MyJpdXJw0q-12">
          <mxGeometry x="-0.5517" y="1" relative="1" as="geometry">
            <mxPoint x="3" y="-11" as="offset" />
          </mxGeometry>
        </mxCell>
        <mxCell id="ONjn1HUcM6MyJpdXJw0q-4" value="¿El evento se guardó&lt;div&gt;correctamente?&lt;/div&gt;" style="points=[[0.25,0.25,0],[0.5,0,0],[0.75,0.25,0],[1,0.5,0],[0.75,0.75,0],[0.5,1,0],[0.25,0.75,0],[0,0.5,0]];shape=mxgraph.bpmn.gateway2;html=1;verticalLabelPosition=bottom;labelBackgroundColor=#ffffff;verticalAlign=top;align=center;perimeter=rhombusPerimeter;outlineConnect=0;outline=none;symbol=none;fillColor=#d5e8d4;strokeColor=#82b366;" vertex="1" parent="e5MXqv3pdKOOL6rmGM5y-85">
          <mxGeometry x="730" y="205" width="50" height="50" as="geometry" />
        </mxCell>
        <mxCell id="ONjn1HUcM6MyJpdXJw0q-5" value="Ingresar datos en Base de Datos" style="points=[[0.25,0,0],[0.5,0,0],[0.75,0,0],[1,0.25,0],[1,0.5,0],[1,0.75,0],[0.75,1,0],[0.5,1,0],[0.25,1,0],[0,0.75,0],[0,0.5,0],[0,0.25,0]];shape=mxgraph.bpmn.task2;whiteSpace=wrap;rectStyle=rounded;size=10;html=1;container=1;expand=0;collapsible=0;taskMarker=service;fillColor=#dae8fc;strokeColor=#6c8ebf;" vertex="1" parent="e5MXqv3pdKOOL6rmGM5y-85">
          <mxGeometry x="610" y="75" width="120" height="80" as="geometry" />
        </mxCell>
        <mxCell id="ONjn1HUcM6MyJpdXJw0q-7" style="edgeStyle=orthogonalEdgeStyle;rounded=0;orthogonalLoop=1;jettySize=auto;html=1;entryX=0.5;entryY=0;entryDx=0;entryDy=0;entryPerimeter=0;exitX=1;exitY=0.5;exitDx=0;exitDy=0;exitPerimeter=0;" edge="1" parent="e5MXqv3pdKOOL6rmGM5y-85" source="ONjn1HUcM6MyJpdXJw0q-5" target="ONjn1HUcM6MyJpdXJw0q-4">
          <mxGeometry relative="1" as="geometry" />
        </mxCell>
        <mxCell id="ONjn1HUcM6MyJpdXJw0q-8" style="edgeStyle=orthogonalEdgeStyle;rounded=0;orthogonalLoop=1;jettySize=auto;html=1;entryX=0;entryY=0.5;entryDx=0;entryDy=0;entryPerimeter=0;exitX=1;exitY=0.5;exitDx=0;exitDy=0;exitPerimeter=0;" edge="1" parent="e5MXqv3pdKOOL6rmGM5y-85" source="ONjn1HUcM6MyJpdXJw0q-4" target="e5MXqv3pdKOOL6rmGM5y-119">
          <mxGeometry relative="1" as="geometry" />
        </mxCell>
        <mxCell id="ONjn1HUcM6MyJpdXJw0q-9" value="Sí" style="edgeLabel;html=1;align=center;verticalAlign=middle;resizable=0;points=[];" connectable="0" vertex="1" parent="ONjn1HUcM6MyJpdXJw0q-8">
          <mxGeometry x="-0.8113" y="1" relative="1" as="geometry">
            <mxPoint x="-6" y="-14" as="offset" />
          </mxGeometry>
        </mxCell>
        <mxCell id="ONjn1HUcM6MyJpdXJw0q-11" value="Mostrar error de guardado" style="points=[[0.25,0,0],[0.5,0,0],[0.75,0,0],[1,0.25,0],[1,0.5,0],[1,0.75,0],[0.75,1,0],[0.5,1,0],[0.25,1,0],[0,0.75,0],[0,0.5,0],[0,0.25,0]];shape=mxgraph.bpmn.task2;whiteSpace=wrap;rectStyle=rounded;size=10;html=1;container=1;expand=0;collapsible=0;taskMarker=abstract;fillColor=#f8cecc;strokeColor=#b85450;" vertex="1" parent="e5MXqv3pdKOOL6rmGM5y-85">
          <mxGeometry x="530" y="190" width="120" height="80" as="geometry" />
        </mxCell>
        <mxCell id="e5MXqv3pdKOOL6rmGM5y-126" value="Proceso de inscripción a eventos" style="swimlane;html=1;childLayout=stackLayout;resizeParent=1;resizeParentMax=0;horizontal=0;startSize=20;horizontalStack=0;whiteSpace=wrap;" vertex="1" parent="1">
          <mxGeometry x="50" y="2130" width="1460" height="720" as="geometry" />
        </mxCell>
        <mxCell id="e5MXqv3pdKOOL6rmGM5y-160" style="edgeStyle=orthogonalEdgeStyle;rounded=0;orthogonalLoop=1;jettySize=auto;html=1;exitX=0.5;exitY=1;exitDx=0;exitDy=0;exitPerimeter=0;entryX=0.5;entryY=0;entryDx=0;entryDy=0;entryPerimeter=0;" edge="1" parent="e5MXqv3pdKOOL6rmGM5y-126" source="e5MXqv3pdKOOL6rmGM5y-129" target="ONjn1HUcM6MyJpdXJw0q-15">
          <mxGeometry relative="1" as="geometry">
            <mxPoint x="440" y="150" as="sourcePoint" />
            <mxPoint x="349.9999999999998" y="419.99999999999955" as="targetPoint" />
            <Array as="points">
              <mxPoint x="255" y="260" />
              <mxPoint x="160" y="260" />
            </Array>
          </mxGeometry>
        </mxCell>
        <mxCell id="e5MXqv3pdKOOL6rmGM5y-186" style="edgeStyle=orthogonalEdgeStyle;rounded=0;orthogonalLoop=1;jettySize=auto;html=1;exitX=0.5;exitY=1;exitDx=0;exitDy=0;exitPerimeter=0;entryX=0.5;entryY=0;entryDx=0;entryDy=0;entryPerimeter=0;" edge="1" parent="e5MXqv3pdKOOL6rmGM5y-126" source="e5MXqv3pdKOOL6rmGM5y-150" target="e5MXqv3pdKOOL6rmGM5y-141">
          <mxGeometry relative="1" as="geometry">
            <mxPoint x="850" y="220" as="sourcePoint" />
            <mxPoint x="990" y="220" as="targetPoint" />
          </mxGeometry>
        </mxCell>
        <mxCell id="e5MXqv3pdKOOL6rmGM5y-187" style="edgeStyle=orthogonalEdgeStyle;rounded=0;orthogonalLoop=1;jettySize=auto;html=1;entryX=0.5;entryY=1;entryDx=0;entryDy=0;entryPerimeter=0;exitX=0;exitY=0.5;exitDx=0;exitDy=0;exitPerimeter=0;" edge="1" parent="e5MXqv3pdKOOL6rmGM5y-126" source="e5MXqv3pdKOOL6rmGM5y-158" target="e5MXqv3pdKOOL6rmGM5y-130">
          <mxGeometry relative="1" as="geometry">
            <mxPoint x="670" y="250" as="sourcePoint" />
            <mxPoint x="1290" y="250" as="targetPoint" />
            <Array as="points">
              <mxPoint x="480" y="520" />
            </Array>
          </mxGeometry>
        </mxCell>
        <mxCell id="ONjn1HUcM6MyJpdXJw0q-18" style="edgeStyle=orthogonalEdgeStyle;rounded=0;orthogonalLoop=1;jettySize=auto;html=1;entryX=0;entryY=0.75;entryDx=0;entryDy=0;entryPerimeter=0;exitX=0.5;exitY=0;exitDx=0;exitDy=0;exitPerimeter=0;" edge="1" parent="e5MXqv3pdKOOL6rmGM5y-126" source="ONjn1HUcM6MyJpdXJw0q-16" target="e5MXqv3pdKOOL6rmGM5y-130">
          <mxGeometry relative="1" as="geometry" />
        </mxCell>
        <mxCell id="e5MXqv3pdKOOL6rmGM5y-128" value="Usuario" style="swimlane;html=1;startSize=20;horizontal=0;" vertex="1" parent="e5MXqv3pdKOOL6rmGM5y-126">
          <mxGeometry x="20" width="1440" height="250" as="geometry" />
        </mxCell>
        <mxCell id="e5MXqv3pdKOOL6rmGM5y-129" value="Ingresar texto de búsqueda de evento" style="points=[[0.25,0,0],[0.5,0,0],[0.75,0,0],[1,0.25,0],[1,0.5,0],[1,0.75,0],[0.75,1,0],[0.5,1,0],[0.25,1,0],[0,0.75,0],[0,0.5,0],[0,0.25,0]];shape=mxgraph.bpmn.task2;whiteSpace=wrap;rectStyle=rounded;size=10;html=1;container=1;expand=0;collapsible=0;taskMarker=abstract;fillColor=#dae8fc;strokeColor=#6c8ebf;" vertex="1" parent="e5MXqv3pdKOOL6rmGM5y-128">
          <mxGeometry x="180" y="130" width="110" height="80" as="geometry" />
        </mxCell>
        <mxCell id="e5MXqv3pdKOOL6rmGM5y-130" value="Revisar detalles de eventos" style="points=[[0.25,0,0],[0.5,0,0],[0.75,0,0],[1,0.25,0],[1,0.5,0],[1,0.75,0],[0.75,1,0],[0.5,1,0],[0.25,1,0],[0,0.75,0],[0,0.5,0],[0,0.25,0]];shape=mxgraph.bpmn.task2;whiteSpace=wrap;rectStyle=rounded;size=10;html=1;container=1;expand=0;collapsible=0;taskMarker=user;fillColor=#dae8fc;strokeColor=#6c8ebf;" vertex="1" parent="e5MXqv3pdKOOL6rmGM5y-128">
          <mxGeometry x="400" y="130" width="120" height="80" as="geometry" />
        </mxCell>
        <mxCell id="e5MXqv3pdKOOL6rmGM5y-131" value="" style="points=[[0.145,0.145,0],[0.5,0,0],[0.855,0.145,0],[1,0.5,0],[0.855,0.855,0],[0.5,1,0],[0.145,0.855,0],[0,0.5,0]];shape=mxgraph.bpmn.event;html=1;verticalLabelPosition=bottom;labelBackgroundColor=#ffffff;verticalAlign=top;align=center;perimeter=ellipsePerimeter;outlineConnect=0;aspect=fixed;outline=standard;symbol=general;fillColor=#ffe6cc;strokeColor=#d79b00;" vertex="1" parent="e5MXqv3pdKOOL6rmGM5y-128">
          <mxGeometry x="30" y="150" width="40" height="40" as="geometry" />
        </mxCell>
        <mxCell id="e5MXqv3pdKOOL6rmGM5y-132" style="edgeStyle=orthogonalEdgeStyle;rounded=0;orthogonalLoop=1;jettySize=auto;html=1;entryX=0;entryY=0.5;entryDx=0;entryDy=0;entryPerimeter=0;exitX=1;exitY=0.5;exitDx=0;exitDy=0;exitPerimeter=0;" edge="1" parent="e5MXqv3pdKOOL6rmGM5y-128" source="e5MXqv3pdKOOL6rmGM5y-131" target="e5MXqv3pdKOOL6rmGM5y-129">
          <mxGeometry relative="1" as="geometry">
            <mxPoint x="165" y="445" as="sourcePoint" />
            <mxPoint x="135" y="170" as="targetPoint" />
          </mxGeometry>
        </mxCell>
        <mxCell id="e5MXqv3pdKOOL6rmGM5y-150" value="Solicitar inscripción al evento" style="points=[[0.25,0,0],[0.5,0,0],[0.75,0,0],[1,0.25,0],[1,0.5,0],[1,0.75,0],[0.75,1,0],[0.5,1,0],[0.25,1,0],[0,0.75,0],[0,0.5,0],[0,0.25,0]];shape=mxgraph.bpmn.task2;whiteSpace=wrap;rectStyle=rounded;size=10;html=1;container=1;expand=0;collapsible=0;taskMarker=user;fillColor=#dae8fc;strokeColor=#6c8ebf;" vertex="1" parent="e5MXqv3pdKOOL6rmGM5y-128">
          <mxGeometry x="950" y="130" width="120" height="80" as="geometry" />
        </mxCell>
        <mxCell id="e5MXqv3pdKOOL6rmGM5y-136" value="" style="points=[[0.145,0.145,0],[0.5,0,0],[0.855,0.145,0],[1,0.5,0],[0.855,0.855,0],[0.5,1,0],[0.145,0.855,0],[0,0.5,0]];shape=mxgraph.bpmn.event;html=1;verticalLabelPosition=bottom;labelBackgroundColor=#ffffff;verticalAlign=top;align=center;perimeter=ellipsePerimeter;outlineConnect=0;aspect=fixed;outline=end;symbol=terminate2;fillColor=#fff2cc;strokeColor=#d6b656;" vertex="1" parent="e5MXqv3pdKOOL6rmGM5y-128">
          <mxGeometry x="1120" y="175" width="35" height="35" as="geometry" />
        </mxCell>
        <mxCell id="ONjn1HUcM6MyJpdXJw0q-45" value="Inscripción a evento&lt;div&gt;existosa&lt;/div&gt;" style="text;html=1;align=center;verticalAlign=middle;resizable=0;points=[];autosize=1;strokeColor=none;fillColor=none;" vertex="1" parent="e5MXqv3pdKOOL6rmGM5y-128">
          <mxGeometry x="1072.5" y="130" width="130" height="40" as="geometry" />
        </mxCell>
        <mxCell id="ONjn1HUcM6MyJpdXJw0q-52" style="edgeStyle=orthogonalEdgeStyle;rounded=0;orthogonalLoop=1;jettySize=auto;html=1;entryX=0.5;entryY=1;entryDx=0;entryDy=0;entryPerimeter=0;" edge="1" parent="e5MXqv3pdKOOL6rmGM5y-128" source="ONjn1HUcM6MyJpdXJw0q-47" target="ONjn1HUcM6MyJpdXJw0q-53">
          <mxGeometry relative="1" as="geometry">
            <mxPoint x="665" y="100" as="targetPoint" />
          </mxGeometry>
        </mxCell>
        <mxCell id="ONjn1HUcM6MyJpdXJw0q-54" value="No" style="edgeLabel;html=1;align=center;verticalAlign=middle;resizable=0;points=[];" connectable="0" vertex="1" parent="ONjn1HUcM6MyJpdXJw0q-52">
          <mxGeometry x="-0.1285" y="-1" relative="1" as="geometry">
            <mxPoint x="-16" y="11" as="offset" />
          </mxGeometry>
        </mxCell>
        <mxCell id="ONjn1HUcM6MyJpdXJw0q-47" value="¿Hay un evento al que el&lt;div&gt;usuario desee&amp;nbsp;&lt;span style=&quot;background-color: light-dark(rgb(255, 255, 255), rgb(18, 18, 18)); color: light-dark(rgb(0, 0, 0), rgb(255, 255, 255));&quot;&gt;inscribirse?&lt;/span&gt;&lt;/div&gt;" style="points=[[0.25,0.25,0],[0.5,0,0],[0.75,0.25,0],[1,0.5,0],[0.75,0.75,0],[0.5,1,0],[0.25,0.75,0],[0,0.5,0]];shape=mxgraph.bpmn.gateway2;html=1;verticalLabelPosition=bottom;labelBackgroundColor=#ffffff;verticalAlign=top;align=center;perimeter=rhombusPerimeter;outlineConnect=0;outline=none;symbol=none;fillColor=#d5e8d4;strokeColor=#82b366;" vertex="1" parent="e5MXqv3pdKOOL6rmGM5y-128">
          <mxGeometry x="640" y="145" width="50" height="50" as="geometry" />
        </mxCell>
        <mxCell id="ONjn1HUcM6MyJpdXJw0q-49" style="edgeStyle=orthogonalEdgeStyle;rounded=0;orthogonalLoop=1;jettySize=auto;html=1;entryX=0;entryY=0.5;entryDx=0;entryDy=0;entryPerimeter=0;" edge="1" parent="e5MXqv3pdKOOL6rmGM5y-128" source="e5MXqv3pdKOOL6rmGM5y-130" target="ONjn1HUcM6MyJpdXJw0q-47">
          <mxGeometry relative="1" as="geometry" />
        </mxCell>
        <mxCell id="ONjn1HUcM6MyJpdXJw0q-53" value="" style="points=[[0.145,0.145,0],[0.5,0,0],[0.855,0.145,0],[1,0.5,0],[0.855,0.855,0],[0.5,1,0],[0.145,0.855,0],[0,0.5,0]];shape=mxgraph.bpmn.event;html=1;verticalLabelPosition=bottom;labelBackgroundColor=#ffffff;verticalAlign=top;align=center;perimeter=ellipsePerimeter;outlineConnect=0;aspect=fixed;outline=end;symbol=terminate2;fillColor=#fff2cc;strokeColor=#d6b656;" vertex="1" parent="e5MXqv3pdKOOL6rmGM5y-128">
          <mxGeometry x="647.5" y="50" width="35" height="35" as="geometry" />
        </mxCell>
        <mxCell id="ONjn1HUcM6MyJpdXJw0q-55" value="Sin inscripción a evento" style="text;html=1;align=center;verticalAlign=middle;resizable=0;points=[];autosize=1;strokeColor=none;fillColor=none;" vertex="1" parent="e5MXqv3pdKOOL6rmGM5y-128">
          <mxGeometry x="590" y="15" width="150" height="30" as="geometry" />
        </mxCell>
        <mxCell id="ONjn1HUcM6MyJpdXJw0q-68" style="edgeStyle=orthogonalEdgeStyle;rounded=0;orthogonalLoop=1;jettySize=auto;html=1;" edge="1" parent="e5MXqv3pdKOOL6rmGM5y-128" source="ONjn1HUcM6MyJpdXJw0q-63" target="e5MXqv3pdKOOL6rmGM5y-150">
          <mxGeometry relative="1" as="geometry" />
        </mxCell>
        <mxCell id="ONjn1HUcM6MyJpdXJw0q-69" value="Sí" style="edgeLabel;html=1;align=center;verticalAlign=middle;resizable=0;points=[];" connectable="0" vertex="1" parent="ONjn1HUcM6MyJpdXJw0q-68">
          <mxGeometry x="-0.2212" y="2" relative="1" as="geometry">
            <mxPoint x="-25" y="-8" as="offset" />
          </mxGeometry>
        </mxCell>
        <mxCell id="ONjn1HUcM6MyJpdXJw0q-63" value="" style="points=[[0.25,0.25,0],[0.5,0,0],[0.75,0.25,0],[1,0.5,0],[0.75,0.75,0],[0.5,1,0],[0.25,0.75,0],[0,0.5,0]];shape=mxgraph.bpmn.gateway2;html=1;verticalLabelPosition=bottom;labelBackgroundColor=#ffffff;verticalAlign=top;align=center;perimeter=rhombusPerimeter;outlineConnect=0;outline=none;symbol=none;fillColor=#d5e8d4;strokeColor=#82b366;" vertex="1" parent="e5MXqv3pdKOOL6rmGM5y-128">
          <mxGeometry x="810" y="145" width="50" height="50" as="geometry" />
        </mxCell>
        <mxCell id="ONjn1HUcM6MyJpdXJw0q-65" value="¿Hay cupos&lt;div&gt;disponibles?&lt;/div&gt;" style="text;html=1;align=center;verticalAlign=middle;resizable=0;points=[];autosize=1;fillColor=default;" vertex="1" parent="e5MXqv3pdKOOL6rmGM5y-128">
          <mxGeometry x="790" y="100" width="90" height="40" as="geometry" />
        </mxCell>
        <mxCell id="ONjn1HUcM6MyJpdXJw0q-66" style="edgeStyle=orthogonalEdgeStyle;rounded=0;orthogonalLoop=1;jettySize=auto;html=1;entryX=0;entryY=0.5;entryDx=0;entryDy=0;entryPerimeter=0;" edge="1" parent="e5MXqv3pdKOOL6rmGM5y-128" source="ONjn1HUcM6MyJpdXJw0q-47" target="ONjn1HUcM6MyJpdXJw0q-63">
          <mxGeometry relative="1" as="geometry" />
        </mxCell>
        <mxCell id="ONjn1HUcM6MyJpdXJw0q-67" value="Sí" style="edgeLabel;html=1;align=center;verticalAlign=middle;resizable=0;points=[];" connectable="0" vertex="1" parent="ONjn1HUcM6MyJpdXJw0q-66">
          <mxGeometry x="-0.0072" y="1" relative="1" as="geometry">
            <mxPoint x="-49" y="-10" as="offset" />
          </mxGeometry>
        </mxCell>
        <mxCell id="ONjn1HUcM6MyJpdXJw0q-70" style="edgeStyle=orthogonalEdgeStyle;rounded=0;orthogonalLoop=1;jettySize=auto;html=1;entryX=0.75;entryY=1;entryDx=0;entryDy=0;entryPerimeter=0;exitX=0.5;exitY=1;exitDx=0;exitDy=0;exitPerimeter=0;" edge="1" parent="e5MXqv3pdKOOL6rmGM5y-128" source="ONjn1HUcM6MyJpdXJw0q-63" target="e5MXqv3pdKOOL6rmGM5y-130">
          <mxGeometry relative="1" as="geometry">
            <Array as="points">
              <mxPoint x="835" y="240" />
              <mxPoint x="490" y="240" />
            </Array>
          </mxGeometry>
        </mxCell>
        <mxCell id="ONjn1HUcM6MyJpdXJw0q-72" value="No" style="edgeLabel;html=1;align=center;verticalAlign=middle;resizable=0;points=[];" connectable="0" vertex="1" parent="ONjn1HUcM6MyJpdXJw0q-70">
          <mxGeometry x="-0.8988" relative="1" as="geometry">
            <mxPoint x="15" y="-8" as="offset" />
          </mxGeometry>
        </mxCell>
        <mxCell id="e5MXqv3pdKOOL6rmGM5y-135" value="Sistema" style="swimlane;html=1;startSize=20;horizontal=0;" vertex="1" parent="e5MXqv3pdKOOL6rmGM5y-126">
          <mxGeometry x="20" y="250" width="1440" height="470" as="geometry" />
        </mxCell>
        <mxCell id="e5MXqv3pdKOOL6rmGM5y-141" value="Verificar disponibilidad" style="points=[[0.25,0,0],[0.5,0,0],[0.75,0,0],[1,0.25,0],[1,0.5,0],[1,0.75,0],[0.75,1,0],[0.5,1,0],[0.25,1,0],[0,0.75,0],[0,0.5,0],[0,0.25,0]];shape=mxgraph.bpmn.task2;whiteSpace=wrap;rectStyle=rounded;size=10;html=1;container=1;expand=0;collapsible=0;taskMarker=abstract;fillColor=#dae8fc;strokeColor=#6c8ebf;" vertex="1" parent="e5MXqv3pdKOOL6rmGM5y-135">
          <mxGeometry x="500" y="120" width="120" height="80" as="geometry" />
        </mxCell>
        <mxCell id="e5MXqv3pdKOOL6rmGM5y-153" value="" style="points=[[0.25,0.25,0],[0.5,0,0],[0.75,0.25,0],[1,0.5,0],[0.75,0.75,0],[0.5,1,0],[0.25,0.75,0],[0,0.5,0]];shape=mxgraph.bpmn.gateway2;html=1;verticalLabelPosition=bottom;labelBackgroundColor=#ffffff;verticalAlign=top;align=center;perimeter=rhombusPerimeter;outlineConnect=0;outline=none;symbol=none;fillColor=#d5e8d4;strokeColor=#82b366;" vertex="1" parent="e5MXqv3pdKOOL6rmGM5y-135">
          <mxGeometry x="700" y="135" width="50" height="50" as="geometry" />
        </mxCell>
        <mxCell id="e5MXqv3pdKOOL6rmGM5y-154" value="¿Aún hay cupos&lt;div&gt;disponibles?&lt;/div&gt;" style="text;html=1;align=center;verticalAlign=middle;resizable=0;points=[];autosize=1;fillColor=default;" vertex="1" parent="e5MXqv3pdKOOL6rmGM5y-135">
          <mxGeometry x="670" y="95" width="110" height="40" as="geometry" />
        </mxCell>
        <mxCell id="e5MXqv3pdKOOL6rmGM5y-155" style="edgeStyle=orthogonalEdgeStyle;rounded=0;orthogonalLoop=1;jettySize=auto;html=1;exitX=1;exitY=0.5;exitDx=0;exitDy=0;exitPerimeter=0;entryX=0;entryY=0.5;entryDx=0;entryDy=0;entryPerimeter=0;" edge="1" parent="e5MXqv3pdKOOL6rmGM5y-135" source="e5MXqv3pdKOOL6rmGM5y-153" target="ONjn1HUcM6MyJpdXJw0q-21">
          <mxGeometry relative="1" as="geometry">
            <mxPoint x="990" y="74" as="sourcePoint" />
            <mxPoint x="890" y="160" as="targetPoint" />
          </mxGeometry>
        </mxCell>
        <mxCell id="ONjn1HUcM6MyJpdXJw0q-20" value="Sí" style="edgeLabel;html=1;align=center;verticalAlign=middle;resizable=0;points=[];" connectable="0" vertex="1" parent="e5MXqv3pdKOOL6rmGM5y-155">
          <mxGeometry x="0.0932" y="3" relative="1" as="geometry">
            <mxPoint x="-57" y="-7" as="offset" />
          </mxGeometry>
        </mxCell>
        <mxCell id="e5MXqv3pdKOOL6rmGM5y-158" value="Mostrar notificación de cupo no disponible" style="points=[[0.25,0,0],[0.5,0,0],[0.75,0,0],[1,0.25,0],[1,0.5,0],[1,0.75,0],[0.75,1,0],[0.5,1,0],[0.25,1,0],[0,0.75,0],[0,0.5,0],[0,0.25,0]];shape=mxgraph.bpmn.task2;whiteSpace=wrap;rectStyle=rounded;size=10;html=1;container=1;expand=0;collapsible=0;taskMarker=abstract;isLoopSub=1;fillColor=#f8cecc;strokeColor=#b85450;" vertex="1" parent="e5MXqv3pdKOOL6rmGM5y-135">
          <mxGeometry x="665" y="230" width="120" height="80" as="geometry" />
        </mxCell>
        <mxCell id="e5MXqv3pdKOOL6rmGM5y-159" style="edgeStyle=orthogonalEdgeStyle;rounded=0;orthogonalLoop=1;jettySize=auto;html=1;exitX=0.5;exitY=1;exitDx=0;exitDy=0;exitPerimeter=0;entryX=0.5;entryY=0;entryDx=0;entryDy=0;entryPerimeter=0;" edge="1" parent="e5MXqv3pdKOOL6rmGM5y-135" source="e5MXqv3pdKOOL6rmGM5y-153" target="e5MXqv3pdKOOL6rmGM5y-158">
          <mxGeometry relative="1" as="geometry">
            <mxPoint x="950" y="-80" as="sourcePoint" />
            <mxPoint x="900" y="200" as="targetPoint" />
          </mxGeometry>
        </mxCell>
        <mxCell id="ONjn1HUcM6MyJpdXJw0q-19" value="No" style="edgeLabel;html=1;align=center;verticalAlign=middle;resizable=0;points=[];" connectable="0" vertex="1" parent="e5MXqv3pdKOOL6rmGM5y-159">
          <mxGeometry x="-0.1636" y="-1" relative="1" as="geometry">
            <mxPoint x="16" y="-14" as="offset" />
          </mxGeometry>
        </mxCell>
        <mxCell id="ONjn1HUcM6MyJpdXJw0q-17" style="edgeStyle=orthogonalEdgeStyle;rounded=0;orthogonalLoop=1;jettySize=auto;html=1;" edge="1" parent="e5MXqv3pdKOOL6rmGM5y-135" source="ONjn1HUcM6MyJpdXJw0q-15" target="ONjn1HUcM6MyJpdXJw0q-16">
          <mxGeometry relative="1" as="geometry" />
        </mxCell>
        <mxCell id="ONjn1HUcM6MyJpdXJw0q-15" value="Extraer coincidencias de Base de Datos" style="points=[[0.25,0,0],[0.5,0,0],[0.75,0,0],[1,0.25,0],[1,0.5,0],[1,0.75,0],[0.75,1,0],[0.5,1,0],[0.25,1,0],[0,0.75,0],[0,0.5,0],[0,0.25,0]];shape=mxgraph.bpmn.task2;whiteSpace=wrap;rectStyle=rounded;size=10;html=1;container=1;expand=0;collapsible=0;taskMarker=service;fillColor=#dae8fc;strokeColor=#6c8ebf;" vertex="1" parent="e5MXqv3pdKOOL6rmGM5y-135">
          <mxGeometry x="80" y="110" width="120" height="80" as="geometry" />
        </mxCell>
        <mxCell id="ONjn1HUcM6MyJpdXJw0q-16" value="Mostras lista de eventos retornados" style="points=[[0.25,0,0],[0.5,0,0],[0.75,0,0],[1,0.25,0],[1,0.5,0],[1,0.75,0],[0.75,1,0],[0.5,1,0],[0.25,1,0],[0,0.75,0],[0,0.5,0],[0,0.25,0]];shape=mxgraph.bpmn.task2;whiteSpace=wrap;rectStyle=rounded;size=10;html=1;container=1;expand=0;collapsible=0;taskMarker=abstract;fillColor=#dae8fc;strokeColor=#6c8ebf;" vertex="1" parent="e5MXqv3pdKOOL6rmGM5y-135">
          <mxGeometry x="270" y="110" width="120" height="80" as="geometry" />
        </mxCell>
        <mxCell id="ONjn1HUcM6MyJpdXJw0q-37" style="edgeStyle=orthogonalEdgeStyle;rounded=0;orthogonalLoop=1;jettySize=auto;html=1;" edge="1" parent="e5MXqv3pdKOOL6rmGM5y-135" source="ONjn1HUcM6MyJpdXJw0q-21" target="ONjn1HUcM6MyJpdXJw0q-22">
          <mxGeometry relative="1" as="geometry" />
        </mxCell>
        <mxCell id="ONjn1HUcM6MyJpdXJw0q-21" value="Registrar inscripción en Base de Datos" style="points=[[0.25,0,0],[0.5,0,0],[0.75,0,0],[1,0.25,0],[1,0.5,0],[1,0.75,0],[0.75,1,0],[0.5,1,0],[0.25,1,0],[0,0.75,0],[0,0.5,0],[0,0.25,0]];shape=mxgraph.bpmn.task2;whiteSpace=wrap;rectStyle=rounded;size=10;html=1;container=1;expand=0;collapsible=0;taskMarker=service;fillColor=#dae8fc;strokeColor=#6c8ebf;" vertex="1" parent="e5MXqv3pdKOOL6rmGM5y-135">
          <mxGeometry x="870" y="120" width="120" height="80" as="geometry" />
        </mxCell>
        <mxCell id="ONjn1HUcM6MyJpdXJw0q-38" style="edgeStyle=orthogonalEdgeStyle;rounded=0;orthogonalLoop=1;jettySize=auto;html=1;" edge="1" parent="e5MXqv3pdKOOL6rmGM5y-135" source="ONjn1HUcM6MyJpdXJw0q-22" target="ONjn1HUcM6MyJpdXJw0q-23">
          <mxGeometry relative="1" as="geometry" />
        </mxCell>
        <mxCell id="ONjn1HUcM6MyJpdXJw0q-39" value="No" style="edgeLabel;html=1;align=center;verticalAlign=middle;resizable=0;points=[];" connectable="0" vertex="1" parent="ONjn1HUcM6MyJpdXJw0q-38">
          <mxGeometry x="0.1085" y="1" relative="1" as="geometry">
            <mxPoint x="51" y="-16" as="offset" />
          </mxGeometry>
        </mxCell>
        <mxCell id="ONjn1HUcM6MyJpdXJw0q-41" style="edgeStyle=orthogonalEdgeStyle;rounded=0;orthogonalLoop=1;jettySize=auto;html=1;entryX=0.5;entryY=1;entryDx=0;entryDy=0;entryPerimeter=0;" edge="1" parent="e5MXqv3pdKOOL6rmGM5y-135" source="ONjn1HUcM6MyJpdXJw0q-22" target="ONjn1HUcM6MyJpdXJw0q-43">
          <mxGeometry relative="1" as="geometry">
            <mxPoint x="1130" y="375" as="targetPoint" />
          </mxGeometry>
        </mxCell>
        <mxCell id="ONjn1HUcM6MyJpdXJw0q-46" value="Sí" style="edgeLabel;html=1;align=center;verticalAlign=middle;resizable=0;points=[];" connectable="0" vertex="1" parent="ONjn1HUcM6MyJpdXJw0q-41">
          <mxGeometry x="-0.8098" relative="1" as="geometry">
            <mxPoint x="-17" y="-15" as="offset" />
          </mxGeometry>
        </mxCell>
        <mxCell id="ONjn1HUcM6MyJpdXJw0q-22" value="¿La inscripción se guardó&lt;div&gt;correctamente?&lt;/div&gt;" style="points=[[0.25,0.25,0],[0.5,0,0],[0.75,0.25,0],[1,0.5,0],[0.75,0.75,0],[0.5,1,0],[0.25,0.75,0],[0,0.5,0]];shape=mxgraph.bpmn.gateway2;html=1;verticalLabelPosition=bottom;labelBackgroundColor=#ffffff;verticalAlign=top;align=center;perimeter=rhombusPerimeter;outlineConnect=0;outline=none;symbol=none;fillColor=#d5e8d4;strokeColor=#82b366;" vertex="1" parent="e5MXqv3pdKOOL6rmGM5y-135">
          <mxGeometry x="905" y="350" width="50" height="50" as="geometry" />
        </mxCell>
        <mxCell id="ONjn1HUcM6MyJpdXJw0q-23" value="Mostrar error de guardado" style="points=[[0.25,0,0],[0.5,0,0],[0.75,0,0],[1,0.25,0],[1,0.5,0],[1,0.75,0],[0.75,1,0],[0.5,1,0],[0.25,1,0],[0,0.75,0],[0,0.5,0],[0,0.25,0]];shape=mxgraph.bpmn.task2;whiteSpace=wrap;rectStyle=rounded;size=10;html=1;container=1;expand=0;collapsible=0;taskMarker=abstract;fillColor=#f8cecc;strokeColor=#b85450;" vertex="1" parent="e5MXqv3pdKOOL6rmGM5y-135">
          <mxGeometry x="665" y="335" width="120" height="80" as="geometry" />
        </mxCell>
        <mxCell id="ONjn1HUcM6MyJpdXJw0q-43" value="Mostrar confimación de inscripción existosa" style="points=[[0.25,0,0],[0.5,0,0],[0.75,0,0],[1,0.25,0],[1,0.5,0],[1,0.75,0],[0.75,1,0],[0.5,1,0],[0.25,1,0],[0,0.75,0],[0,0.5,0],[0,0.25,0]];shape=mxgraph.bpmn.task2;whiteSpace=wrap;rectStyle=rounded;size=10;html=1;container=1;expand=0;collapsible=0;taskMarker=abstract;fillColor=#dae8fc;strokeColor=#6c8ebf;" vertex="1" parent="e5MXqv3pdKOOL6rmGM5y-135">
          <mxGeometry x="1077.5" y="120" width="120" height="80" as="geometry" />
        </mxCell>
        <mxCell id="ONjn1HUcM6MyJpdXJw0q-56" style="edgeStyle=orthogonalEdgeStyle;rounded=0;orthogonalLoop=1;jettySize=auto;html=1;entryX=0;entryY=0.5;entryDx=0;entryDy=0;entryPerimeter=0;" edge="1" parent="e5MXqv3pdKOOL6rmGM5y-135" source="e5MXqv3pdKOOL6rmGM5y-141" target="e5MXqv3pdKOOL6rmGM5y-153">
          <mxGeometry relative="1" as="geometry" />
        </mxCell>
        <mxCell id="ONjn1HUcM6MyJpdXJw0q-40" style="edgeStyle=orthogonalEdgeStyle;rounded=0;orthogonalLoop=1;jettySize=auto;html=1;entryX=0.25;entryY=1;entryDx=0;entryDy=0;entryPerimeter=0;" edge="1" parent="e5MXqv3pdKOOL6rmGM5y-126" source="ONjn1HUcM6MyJpdXJw0q-23" target="e5MXqv3pdKOOL6rmGM5y-130">
          <mxGeometry relative="1" as="geometry" />
        </mxCell>
        <mxCell id="ONjn1HUcM6MyJpdXJw0q-44" style="edgeStyle=orthogonalEdgeStyle;rounded=0;orthogonalLoop=1;jettySize=auto;html=1;entryX=0.5;entryY=1;entryDx=0;entryDy=0;entryPerimeter=0;" edge="1" parent="e5MXqv3pdKOOL6rmGM5y-126" source="ONjn1HUcM6MyJpdXJw0q-43" target="e5MXqv3pdKOOL6rmGM5y-136">
          <mxGeometry relative="1" as="geometry" />
        </mxCell>
      </root>
    </mxGraphModel>
  </diagram>
</mxfile>
